<mxfile host="app.diagrams.net" modified="2024-06-23T03:23:34.483Z" agent="Mozilla/5.0 (Macintosh; Intel Mac OS X 10_15_7) AppleWebKit/537.36 (KHTML, like Gecko) Chrome/126.0.0.0 Safari/537.36" etag="Lsny0-jC0-ZIBfUrrVJP" version="24.5.5" type="google">
  <diagram name="Page-1" id="W1BVXstlTQKtHsTsT41R">
    <mxGraphModel grid="0" page="1" gridSize="10" guides="1" tooltips="1" connect="1" arrows="1" fold="1" pageScale="1" pageWidth="850" pageHeight="1100" background="none" math="0" shadow="0">
      <root>
        <mxCell id="0" />
        <mxCell id="1" parent="0" />
        <mxCell id="zEclP5a3m7nlVFiOpJhM-22" value="AWS Cloud" style="sketch=0;outlineConnect=0;gradientColor=none;html=1;whiteSpace=wrap;fontSize=12;fontStyle=0;shape=mxgraph.aws4.group;grIcon=mxgraph.aws4.group_aws_cloud;strokeColor=#000000;fillColor=none;verticalAlign=top;align=left;spacingLeft=30;fontColor=#000000;dashed=0;strokeWidth=2;" vertex="1" parent="1">
          <mxGeometry x="190" y="20" width="482" height="610" as="geometry" />
        </mxCell>
        <mxCell id="zEclP5a3m7nlVFiOpJhM-24" value="Backend" style="rounded=1;whiteSpace=wrap;html=1;dashed=1;fillColor=none;verticalAlign=bottom;strokeColor=#000000;strokeWidth=2;fontColor=#000000;" vertex="1" parent="1">
          <mxGeometry x="362" y="70" width="438" height="510" as="geometry" />
        </mxCell>
        <mxCell id="zEclP5a3m7nlVFiOpJhM-23" value="Frontend" style="rounded=1;whiteSpace=wrap;html=1;dashed=1;fillColor=none;verticalAlign=bottom;strokeColor=#000000;strokeWidth=2;fontColor=#000000;" vertex="1" parent="1">
          <mxGeometry x="150" y="70" width="192" height="510" as="geometry" />
        </mxCell>
        <mxCell id="zEclP5a3m7nlVFiOpJhM-7" value="&lt;span style=&quot;font-size: 11px; text-wrap: wrap;&quot;&gt;OpenAI &lt;br&gt;Assistant API&lt;/span&gt;" style="sketch=0;points=[[0,0,0],[0.25,0,0],[0.5,0,0],[0.75,0,0],[1,0,0],[0,1,0],[0.25,1,0],[0.5,1,0],[0.75,1,0],[1,1,0],[0,0.25,0],[0,0.5,0],[0,0.75,0],[1,0.25,0],[1,0.5,0],[1,0.75,0]];outlineConnect=0;fontColor=#000000;fillColor=#97D077;strokeColor=#001DBC;dashed=0;verticalLabelPosition=bottom;verticalAlign=top;align=center;html=1;fontSize=12;fontStyle=1;aspect=fixed;shape=mxgraph.aws4.resourceIcon;resIcon=mxgraph.aws4.lex;" vertex="1" parent="1">
          <mxGeometry x="705.25" y="266.25" width="82.5" height="82.5" as="geometry" />
        </mxCell>
        <mxCell id="zEclP5a3m7nlVFiOpJhM-12" value="Amazon S3" style="sketch=0;outlineConnect=0;fontColor=#232F3E;gradientColor=none;strokeColor=#ffffff;fillColor=#232F3E;dashed=0;verticalLabelPosition=middle;verticalAlign=bottom;align=center;html=1;whiteSpace=wrap;fontSize=10;fontStyle=1;spacing=3;shape=mxgraph.aws4.productIcon;prIcon=mxgraph.aws4.s3;" vertex="1" parent="1">
          <mxGeometry x="222" y="83" width="80" height="100" as="geometry" />
        </mxCell>
        <mxCell id="zEclP5a3m7nlVFiOpJhM-13" value="Amazon Cognito" style="sketch=0;outlineConnect=0;fontColor=#232F3E;gradientColor=none;strokeColor=#ffffff;fillColor=#232F3E;dashed=0;verticalLabelPosition=middle;verticalAlign=bottom;align=center;html=1;whiteSpace=wrap;fontSize=10;fontStyle=1;spacing=3;shape=mxgraph.aws4.productIcon;prIcon=mxgraph.aws4.cognito;" vertex="1" parent="1">
          <mxGeometry x="580" y="83" width="80" height="110" as="geometry" />
        </mxCell>
        <mxCell id="zEclP5a3m7nlVFiOpJhM-14" value="Amazon Cloudfront" style="sketch=0;outlineConnect=0;fontColor=#232F3E;gradientColor=none;strokeColor=#ffffff;fillColor=#232F3E;dashed=0;verticalLabelPosition=middle;verticalAlign=bottom;align=center;html=1;whiteSpace=wrap;fontSize=10;fontStyle=1;spacing=3;shape=mxgraph.aws4.productIcon;prIcon=mxgraph.aws4.cloudfront;" vertex="1" parent="1">
          <mxGeometry x="222" y="252.5" width="80" height="110" as="geometry" />
        </mxCell>
        <mxCell id="zEclP5a3m7nlVFiOpJhM-15" value="Amazon API Gateway" style="sketch=0;outlineConnect=0;fontColor=#232F3E;gradientColor=none;strokeColor=#ffffff;fillColor=#232F3E;dashed=0;verticalLabelPosition=middle;verticalAlign=bottom;align=center;html=1;whiteSpace=wrap;fontSize=10;fontStyle=1;spacing=3;shape=mxgraph.aws4.productIcon;prIcon=mxgraph.aws4.api_gateway;" vertex="1" parent="1">
          <mxGeometry x="387" y="257.5" width="80" height="110" as="geometry" />
        </mxCell>
        <mxCell id="zEclP5a3m7nlVFiOpJhM-16" value="Amazon DynamoDB" style="sketch=0;outlineConnect=0;fontColor=#232F3E;gradientColor=none;strokeColor=#ffffff;fillColor=#232F3E;dashed=0;verticalLabelPosition=middle;verticalAlign=bottom;align=center;html=1;whiteSpace=wrap;fontSize=10;fontStyle=1;spacing=3;shape=mxgraph.aws4.productIcon;prIcon=mxgraph.aws4.dynamodb;" vertex="1" parent="1">
          <mxGeometry x="580" y="432" width="80" height="110" as="geometry" />
        </mxCell>
        <mxCell id="zEclP5a3m7nlVFiOpJhM-17" value="AWS Lambda" style="sketch=0;outlineConnect=0;fontColor=#232F3E;gradientColor=none;strokeColor=#ffffff;fillColor=#232F3E;dashed=0;verticalLabelPosition=middle;verticalAlign=bottom;align=center;html=1;whiteSpace=wrap;fontSize=10;fontStyle=1;spacing=3;shape=mxgraph.aws4.productIcon;prIcon=mxgraph.aws4.lambda;" vertex="1" parent="1">
          <mxGeometry x="541" y="262.5" width="80" height="100" as="geometry" />
        </mxCell>
        <mxCell id="zEclP5a3m7nlVFiOpJhM-18" value="Amazon S3" style="sketch=0;outlineConnect=0;fontColor=#232F3E;gradientColor=none;strokeColor=#ffffff;fillColor=#232F3E;dashed=0;verticalLabelPosition=middle;verticalAlign=bottom;align=center;html=1;whiteSpace=wrap;fontSize=10;fontStyle=1;spacing=3;shape=mxgraph.aws4.productIcon;prIcon=mxgraph.aws4.s3;" vertex="1" parent="1">
          <mxGeometry x="444" y="83" width="80" height="100" as="geometry" />
        </mxCell>
        <mxCell id="zEclP5a3m7nlVFiOpJhM-19" value="users" style="sketch=0;outlineConnect=0;gradientColor=none;fontColor=#000000;strokeColor=none;fillColor=#000000;dashed=0;verticalLabelPosition=bottom;verticalAlign=top;align=center;html=1;fontSize=12;fontStyle=0;aspect=fixed;shape=mxgraph.aws4.illustration_users;pointerEvents=1" vertex="1" parent="1">
          <mxGeometry x="30" y="260" width="77.5" height="77.5" as="geometry" />
        </mxCell>
        <mxCell id="zEclP5a3m7nlVFiOpJhM-25" value="AWS Secrets Manager" style="sketch=0;outlineConnect=0;fontColor=#232F3E;gradientColor=none;strokeColor=#ffffff;fillColor=#232F3E;dashed=0;verticalLabelPosition=middle;verticalAlign=bottom;align=center;html=1;whiteSpace=wrap;fontSize=10;fontStyle=1;spacing=3;shape=mxgraph.aws4.productIcon;prIcon=mxgraph.aws4.secrets_manager;" vertex="1" parent="1">
          <mxGeometry x="444" y="432" width="80" height="110" as="geometry" />
        </mxCell>
        <mxCell id="zEclP5a3m7nlVFiOpJhM-30" value="" style="edgeStyle=none;orthogonalLoop=1;jettySize=auto;html=1;rounded=0;startArrow=block;strokeWidth=0.5;strokeColor=#000000;fillColor=default;" edge="1" parent="1" source="zEclP5a3m7nlVFiOpJhM-17">
          <mxGeometry width="80" relative="1" as="geometry">
            <mxPoint x="590" y="362.5" as="sourcePoint" />
            <mxPoint x="611" y="428" as="targetPoint" />
            <Array as="points" />
          </mxGeometry>
        </mxCell>
        <mxCell id="zEclP5a3m7nlVFiOpJhM-31" value="" style="edgeStyle=none;orthogonalLoop=1;jettySize=auto;html=1;rounded=0;startArrow=block;strokeWidth=0.5;strokeColor=#000000;fillColor=default;" edge="1" parent="1" source="zEclP5a3m7nlVFiOpJhM-17" target="zEclP5a3m7nlVFiOpJhM-25">
          <mxGeometry width="80" relative="1" as="geometry">
            <mxPoint x="552" y="365" as="sourcePoint" />
            <mxPoint x="500" y="410" as="targetPoint" />
            <Array as="points" />
          </mxGeometry>
        </mxCell>
        <mxCell id="zEclP5a3m7nlVFiOpJhM-33" value="" style="edgeStyle=none;orthogonalLoop=1;jettySize=auto;html=1;rounded=0;startArrow=block;strokeWidth=0.5;strokeColor=#000000;fillColor=default;" edge="1" parent="1" source="zEclP5a3m7nlVFiOpJhM-13" target="zEclP5a3m7nlVFiOpJhM-17">
          <mxGeometry width="80" relative="1" as="geometry">
            <mxPoint x="620" y="200" as="sourcePoint" />
            <mxPoint x="590" y="243" as="targetPoint" />
            <Array as="points" />
          </mxGeometry>
        </mxCell>
        <mxCell id="zEclP5a3m7nlVFiOpJhM-34" value="" style="edgeStyle=none;orthogonalLoop=1;jettySize=auto;html=1;rounded=0;startArrow=block;strokeWidth=0.5;strokeColor=#000000;fillColor=default;" edge="1" parent="1" source="zEclP5a3m7nlVFiOpJhM-18">
          <mxGeometry width="80" relative="1" as="geometry">
            <mxPoint x="524" y="184" as="sourcePoint" />
            <mxPoint x="550" y="250" as="targetPoint" />
            <Array as="points" />
          </mxGeometry>
        </mxCell>
        <mxCell id="zEclP5a3m7nlVFiOpJhM-42" value="" style="edgeStyle=none;orthogonalLoop=1;jettySize=auto;html=1;rounded=0;startArrow=block;strokeWidth=0.5;strokeColor=#000000;fillColor=default;" edge="1" parent="1" source="zEclP5a3m7nlVFiOpJhM-17" target="zEclP5a3m7nlVFiOpJhM-15">
          <mxGeometry width="80" relative="1" as="geometry">
            <mxPoint x="511" y="253" as="sourcePoint" />
            <mxPoint x="470" y="302.5" as="targetPoint" />
            <Array as="points" />
          </mxGeometry>
        </mxCell>
        <mxCell id="zEclP5a3m7nlVFiOpJhM-43" value="" style="edgeStyle=none;orthogonalLoop=1;jettySize=auto;html=1;rounded=0;startArrow=block;strokeWidth=0.5;exitX=0;exitY=0.5;exitDx=0;exitDy=0;exitPerimeter=0;strokeColor=#000000;fillColor=default;" edge="1" parent="1" source="zEclP5a3m7nlVFiOpJhM-7">
          <mxGeometry width="80" relative="1" as="geometry">
            <mxPoint x="692" y="309.25" as="sourcePoint" />
            <mxPoint x="621" y="305.75" as="targetPoint" />
            <Array as="points" />
          </mxGeometry>
        </mxCell>
        <mxCell id="zEclP5a3m7nlVFiOpJhM-44" value="" style="edgeStyle=none;orthogonalLoop=1;jettySize=auto;html=1;rounded=0;startArrow=block;strokeWidth=0.5;strokeColor=#000000;fillColor=default;" edge="1" parent="1" target="zEclP5a3m7nlVFiOpJhM-14">
          <mxGeometry width="80" relative="1" as="geometry">
            <mxPoint x="260" y="183" as="sourcePoint" />
            <mxPoint x="100" y="190" as="targetPoint" />
            <Array as="points" />
          </mxGeometry>
        </mxCell>
        <mxCell id="zEclP5a3m7nlVFiOpJhM-45" value="" style="edgeStyle=none;orthogonalLoop=1;jettySize=auto;html=1;rounded=0;startArrow=block;strokeWidth=0.5;strokeColor=#000000;fillColor=default;" edge="1" parent="1" source="zEclP5a3m7nlVFiOpJhM-15" target="zEclP5a3m7nlVFiOpJhM-14">
          <mxGeometry width="80" relative="1" as="geometry">
            <mxPoint x="387" y="312.77" as="sourcePoint" />
            <mxPoint x="300" y="302" as="targetPoint" />
            <Array as="points" />
          </mxGeometry>
        </mxCell>
        <mxCell id="zEclP5a3m7nlVFiOpJhM-47" value="" style="edgeStyle=none;orthogonalLoop=1;jettySize=auto;html=1;rounded=0;startArrow=block;strokeWidth=1;strokeColor=#000000;fillColor=default;" edge="1" parent="1" source="zEclP5a3m7nlVFiOpJhM-14">
          <mxGeometry width="80" relative="1" as="geometry">
            <mxPoint x="191" y="309.25" as="sourcePoint" />
            <mxPoint x="120" y="305.75" as="targetPoint" />
            <Array as="points" />
          </mxGeometry>
        </mxCell>
        <mxCell id="vvoBA77o_L8oUZQzgHhd-2" style="edgeStyle=orthogonalEdgeStyle;rounded=0;orthogonalLoop=1;jettySize=auto;html=1;exitX=0.5;exitY=1;exitDx=0;exitDy=0;" edge="1" parent="1">
          <mxGeometry relative="1" as="geometry">
            <mxPoint x="739.625" y="420" as="sourcePoint" />
            <mxPoint x="739.6999999999998" y="420" as="targetPoint" />
          </mxGeometry>
        </mxCell>
        <mxCell id="vvoBA77o_L8oUZQzgHhd-5" value="Websockets" style="text;strokeColor=none;align=center;fillColor=#FFFFFF;html=1;verticalAlign=middle;whiteSpace=wrap;rounded=0;fontColor=#000000;fontSize=10;labelBackgroundColor=none;" vertex="1" parent="1">
          <mxGeometry x="315" y="311.5" width="60" height="30" as="geometry" />
        </mxCell>
        <mxCell id="vvoBA77o_L8oUZQzgHhd-6" value="Server Side Events" style="text;strokeColor=none;align=center;fillColor=#FFFFFF;html=1;verticalAlign=middle;whiteSpace=wrap;rounded=0;fontColor=#000000;fontSize=10;" vertex="1" parent="1">
          <mxGeometry x="632" y="313" width="70" height="30" as="geometry" />
        </mxCell>
      </root>
    </mxGraphModel>
  </diagram>
</mxfile>
